<svg id="f126ef5a-5267-4515-9136-6d2718ed42da" data-name="Assets" xmlns="http://www.w3.org/2000/svg" xmlns:xlink="http://www.w3.org/1999/xlink" viewBox="0 0 319.82 80"><defs><style>.efd26f2e-48b3-419c-878c-23ef02714363{fill:url(#f974c31e-30ae-4922-81d5-7f9d977fcbaf);}.e3549dc0-173f-492a-829f-c78776a70620{fill:url(#b2a07ed4-56d5-4bb5-a008-fd4c158e9d36);}.b83b4ca2-2d1e-424e-843b-e575377cbc50{fill:url(#beeaa636-c184-41ef-898a-99c827f2cd76);}.fb2cf4eb-2c96-429f-bda7-0abb29ef6aa1{fill:url(#af28c6ee-3210-482d-b473-bf66cbd4400c);}.a97a9e01-f097-461b-9ac4-956cce8cb985{fill:url(#a7963360-9bfb-4d50-b2c0-9ed08846b86c);}.b9cde470-8705-4e05-990e-82b631acc22e{fill:url(#b71d3313-315a-4f87-b17c-65ad3e48947a);}.ff75a5c5-15b9-42bc-93d7-28cab2057c07{fill:url(#e41317d7-4458-49ee-bba1-20e5c5c5de2d);}.ba818b1a-be82-4fdb-96c4-4286688d3a54{fill:url(#b4b83cf4-5b01-420d-bddb-4c8eb0193aa6);}.e7c1e05d-f89e-46cb-b2ee-44e8016c48df{fill:url(#be12298e-0ae8-47cb-b021-bce6dfd9fccd);}.acad06eb-25b1-4e03-9b50-75a623b84802{fill:url(#ab1bd14b-e537-43ba-b898-426a6425bab1);}.f9997565-7b73-408f-b91a-738252506684{fill:url(#b585e93c-5787-42ae-bd2c-db74b4ca355e);}.a1a0a707-1a27-4c78-8510-855b5c783b85{fill:url(#ae01e97c-578c-44af-8be4-06f7a9295de6);}.b71dd15f-7a1c-4165-94d8-63bb74fb04a4{fill:#bcbec0;}</style><linearGradient id="f974c31e-30ae-4922-81d5-7f9d977fcbaf" x1="-414.69" y1="455.97" x2="-415.47" y2="455.19" gradientTransform="matrix(77.42, 0, 0, -79.97, 32173.52, 36474.97)" gradientUnits="userSpaceOnUse"><stop offset="0.05" stop-color="#fff44f"/><stop offset="0.37" stop-color="#ff980e"/><stop offset="0.53" stop-color="#ff3647"/><stop offset="0.7" stop-color="#e31587"/></linearGradient><radialGradient id="b2a07ed4-56d5-4bb5-a008-fd4c158e9d36" cx="-413.33" cy="454.97" r="1.28" gradientTransform="matrix(61.93, 0, 0, -62.95, 25668.66, 28657.18)" gradientUnits="userSpaceOnUse"><stop offset="0.13" stop-color="#ffbd4f"/><stop offset="0.28" stop-color="#ff980e"/><stop offset="0.47" stop-color="#ff3750"/><stop offset="0.78" stop-color="#eb0878"/><stop offset="0.86" stop-color="#e50080"/></radialGradient><radialGradient id="beeaa636-c184-41ef-898a-99c827f2cd76" cx="-413.88" cy="454.44" r="1.28" gradientTransform="matrix(63.48, 0, 0, -62.95, 26313.57, 28649.06)" gradientUnits="userSpaceOnUse"><stop offset="0.3" stop-color="#960e18"/><stop offset="0.35" stop-color="#b11927" stop-opacity="0.74"/><stop offset="0.43" stop-color="#db293d" stop-opacity="0.34"/><stop offset="0.5" stop-color="#f5334b" stop-opacity="0.09"/><stop offset="0.53" stop-color="#ff3750" stop-opacity="0"/></radialGradient><radialGradient id="af28c6ee-3210-482d-b473-bf66cbd4400c" cx="-397.87" cy="448.94" r="1.4" gradientTransform="matrix(18.59, 0, 0, -31.55, 7442.02, 14162.39)" gradientUnits="userSpaceOnUse"><stop offset="0.13" stop-color="#fff44f"/><stop offset="0.53" stop-color="#ff980e"/></radialGradient><radialGradient id="a7963360-9bfb-4d50-b2c0-9ed08846b86c" cx="-408.54" cy="449.69" r="1" gradientTransform="matrix(34.43, 0, 0, -37.74, 14095.84, 17033.98)" gradientUnits="userSpaceOnUse"><stop offset="0.35" stop-color="#3a8ee6"/><stop offset="0.67" stop-color="#9059ff"/><stop offset="1" stop-color="#c139e6"/></radialGradient><radialGradient id="b71d3313-315a-4f87-b17c-65ad3e48947a" cx="-406.89" cy="450.46" r="0.59" gradientTransform="matrix(30.99, 0, 0, -37.74, 12646.42, 17033.98)" gradientUnits="userSpaceOnUse"><stop offset="0.21" stop-color="#9059ff" stop-opacity="0"/><stop offset="0.97" stop-color="#6e008b" stop-opacity="0.6"/></radialGradient><radialGradient id="e41317d7-4458-49ee-bba1-20e5c5c5de2d" cx="-374.29" cy="421.67" r="2.9" gradientTransform="matrix(9.44, 0, 0, -9.47, 3570.02, 4000.43)" gradientUnits="userSpaceOnUse"><stop offset="0.1" stop-color="#ffe226"/><stop offset="0.79" stop-color="#ff7139"/></radialGradient><radialGradient id="b4b83cf4-5b01-420d-bddb-4c8eb0193aa6" cx="-414.36" cy="455.05" r="1.8" gradientTransform="matrix(72.58, 0, 0, -60.93, 30135.36, 27714.74)" gradientUnits="userSpaceOnUse"><stop offset="0.11" stop-color="#fff44f"/><stop offset="0.46" stop-color="#ff980e"/><stop offset="0.72" stop-color="#ff3647"/><stop offset="0.9" stop-color="#e31587"/></radialGradient><radialGradient id="be12298e-0ae8-47cb-b021-bce6dfd9fccd" cx="-403.68" cy="476.33" r="3.49" gradientTransform="matrix(2.59, 24.5, 24.68, -2.57, -10657.37, 11104.99)" gradientUnits="userSpaceOnUse"><stop offset="0" stop-color="#fff44f"/><stop offset="0.3" stop-color="#ff980e"/><stop offset="0.57" stop-color="#ff3647"/><stop offset="0.74" stop-color="#e31587"/></radialGradient><radialGradient id="ab1bd14b-e537-43ba-b898-426a6425bab1" cx="-407.43" cy="448.98" r="2.38" gradientTransform="matrix(31.47, 0, 0, -30.88, 12861.16, 13882.52)" gradientUnits="userSpaceOnUse"><stop offset="0.14" stop-color="#fff44f"/><stop offset="0.48" stop-color="#ff980e"/><stop offset="0.66" stop-color="#ff3647"/><stop offset="0.9" stop-color="#e31587"/></radialGradient><radialGradient id="b585e93c-5787-42ae-bd2c-db74b4ca355e" cx="-404.79" cy="446.57" r="3.13" gradientTransform="matrix(28.8, 0, 0, -25.79, 11715.54, 11537.99)" gradientUnits="userSpaceOnUse"><stop offset="0.09" stop-color="#fff44f"/><stop offset="0.63" stop-color="#ff980e"/></radialGradient><linearGradient id="ae01e97c-578c-44af-8be4-06f7a9295de6" x1="-414.74" y1="455.97" x2="-415.36" y2="455.27" gradientTransform="matrix(77.42, 0, 0, -79.97, 32173.52, 36474.97)" gradientUnits="userSpaceOnUse"><stop offset="0.17" stop-color="#fff44f" stop-opacity="0.8"/><stop offset="0.6" stop-color="#fff44f" stop-opacity="0"/></linearGradient></defs><path id="aa250942-1bcd-4c30-91f5-a9b281c42bd5" data-name="shape-base" class="efd26f2e-48b3-419c-878c-23ef02714363" d="M75.92,26.83c-1.69-4-5.1-8.43-7.78-9.81a40.41,40.41,0,0,1,3.93,11.77v.06C67.69,17.93,60.26,13.52,54.19,3.93c-.31-.49-.62-1-.91-1.49-.15-.26-.3-.52-.43-.8A7.42,7.42,0,0,1,52.27.11a.1.1,0,0,0-.08-.1h-.1s0,0,0,0V0c-9.73,5.7-13,16.25-13.34,21.53a19.42,19.42,0,0,0-10.67,4.11,12.52,12.52,0,0,0-1-.76A18,18,0,0,1,27,15.42a28.81,28.81,0,0,0-9.33,7.21h0c-1.54-1.95-1.43-8.37-1.34-9.71a6.48,6.48,0,0,0-1.3.69,29.21,29.21,0,0,0-3.79,3.24A35.09,35.09,0,0,0,7.57,21.2h0a32.71,32.71,0,0,0-5.2,11.74l-.05.26c-.14.8-.27,1.61-.38,2.42,0,0,0,.05,0,.08a37,37,0,0,0-.63,5.35v.2a38.76,38.76,0,0,0,77,6.55c.07-.5.12-1,.18-1.5A39.93,39.93,0,0,0,75.92,26.83ZM31.25,57.17l.53.26,0,0ZM72.08,28.86v0Z"/><path id="a1862358-465a-4911-8634-d629a5d8294d" data-name="body-outer-ring" class="e3549dc0-173f-492a-829f-c78776a70620" d="M75.92,26.83c-1.69-4-5.1-8.43-7.78-9.81a40.41,40.41,0,0,1,3.93,11.77v.07A35.1,35.1,0,0,1,70.87,55c-4.44,9.53-15.2,19.3-32,18.83-18.18-.52-34.2-14-37.19-31.69-.55-2.78,0-4.2.27-6.46a29.15,29.15,0,0,0-.62,5.35v.2a38.76,38.76,0,0,0,77,6.55c.07-.5.12-1,.18-1.5A39.93,39.93,0,0,0,75.92,26.83Z"/><path id="b5de0b4f-a981-49c4-b6e9-9c33f1c4b74c" data-name="body-outer-ring-shadow" class="b83b4ca2-2d1e-424e-843b-e575377cbc50" d="M75.92,26.83c-1.69-4-5.1-8.43-7.78-9.81a40.41,40.41,0,0,1,3.93,11.77v.07A35.1,35.1,0,0,1,70.87,55c-4.44,9.53-15.2,19.3-32,18.83-18.18-.52-34.2-14-37.19-31.69-.55-2.78,0-4.2.27-6.46a29.15,29.15,0,0,0-.62,5.35v.2a38.76,38.76,0,0,0,77,6.55c.07-.5.12-1,.18-1.5A39.93,39.93,0,0,0,75.92,26.83Z"/><path id="a4c5c9cb-1aa6-4282-bb04-12ef59d9cfa1" data-name="tail-tip" class="fb2cf4eb-2c96-429f-bda7-0abb29ef6aa1" d="M57.08,31.39l.24.17a21,21,0,0,0-3.6-4.69C41.68,14.82,50.57.75,52.06,0l0,0c-9.74,5.7-13,16.25-13.34,21.53.45,0,.9-.07,1.36-.07A19.54,19.54,0,0,1,57.08,31.39Z"/><path id="ebc652e0-e58f-4bb8-8cb5-13a0473c5970" data-name="globe-base" class="a97a9e01-f097-461b-9ac4-956cce8cb985" d="M40.12,33.79c-.06,1-3.47,4.29-4.66,4.29-11,0-12.81,6.67-12.81,6.67.49,5.61,4.4,10.24,9.13,12.68l.66.32c.38.16.76.32,1.14.46a17,17,0,0,0,5,1c19.31.91,23.06-23.1,9.12-30.06a13.34,13.34,0,0,1,9.34,2.27,19.54,19.54,0,0,0-17-9.92c-.46,0-.91,0-1.36.07a19.42,19.42,0,0,0-10.67,4.11c.59.5,1.26,1.17,2.66,2.55C33.36,30.79,40.11,33.48,40.12,33.79Z"/><path id="a5871534-7c9f-4c00-bb80-7c69d1430a35" data-name="globe-shadow" class="b9cde470-8705-4e05-990e-82b631acc22e" d="M40.12,33.79c-.06,1-3.47,4.29-4.66,4.29-11,0-12.81,6.67-12.81,6.67.49,5.61,4.4,10.24,9.13,12.68l.66.32c.38.16.76.32,1.14.46a17,17,0,0,0,5,1c19.31.91,23.06-23.1,9.12-30.06a13.34,13.34,0,0,1,9.34,2.27,19.54,19.54,0,0,0-17-9.92c-.46,0-.91,0-1.36.07a19.42,19.42,0,0,0-10.67,4.11c.59.5,1.26,1.17,2.66,2.55C33.36,30.79,40.11,33.48,40.12,33.79Z"/><path id="fd1d43dd-7f19-4606-8852-49dc322d82b1" data-name="ear" class="ff75a5c5-15b9-42bc-93d7-28cab2057c07" d="M26.26,24.36c.28.17.54.35.8.53a17.9,17.9,0,0,1-.1-9.47,28.59,28.59,0,0,0-9.33,7.21C17.82,22.62,23.44,22.52,26.26,24.36Z"/><path id="be095134-a93c-4e1e-bc9e-639067acc23e" data-name="body" class="ba818b1a-be82-4fdb-96c4-4286688d3a54" d="M1.65,42.16c3,17.68,19,31.17,37.2,31.69,16.83.47,27.58-9.3,32-18.83a35.1,35.1,0,0,0,1.21-26.16v0s0,0,0,0v.06c1.38,9-3.19,17.68-10.32,23.56l0,.05c-13.9,11.33-27.21,6.83-29.91,5l-.56-.28C23.15,53.3,19.8,45.91,20.52,39.58a9.94,9.94,0,0,1-9.18-5.78,14.59,14.59,0,0,1,14.24-.57,19.32,19.32,0,0,0,14.56.57c0-.31-6.76-3-9.39-5.59-1.41-1.38-2.07-2.05-2.67-2.55a12.52,12.52,0,0,0-1-.76l-.8-.53c-2.82-1.84-8.44-1.74-8.63-1.73h0c-1.53-1.95-1.43-8.37-1.34-9.71a6.4,6.4,0,0,0-1.29.69,27.94,27.94,0,0,0-3.79,3.24A34.29,34.29,0,0,0,7.57,21.2h0a32.71,32.71,0,0,0-5.2,11.74C2.35,33,1,39,1.65,42.16Z"/><path id="bac5e278-0f1f-4f2d-9171-519a3c4f6d51" data-name="tail-flame" class="e7c1e05d-f89e-46cb-b2ee-44e8016c48df" d="M53.72,26.87a20.82,20.82,0,0,1,3.6,4.7,6.86,6.86,0,0,1,.59.48c8.78,8.1,4.18,19.55,3.84,20.36,7.13-5.88,11.7-14.58,10.32-23.55C67.69,17.93,60.26,13.52,54.19,3.93c-.31-.49-.62-1-.91-1.49-.15-.26-.3-.52-.43-.8A7.42,7.42,0,0,1,52.27.11a.1.1,0,0,0-.08-.1h-.1s0,0,0,0C50.57.75,41.68,14.82,53.72,26.87Z"/><path id="a384f8b2-e619-45f7-9f74-0bbc32a51d25" data-name="tail-small" class="acad06eb-25b1-4e03-9b50-75a623b84802" d="M57.9,32c-.19-.17-.38-.33-.58-.48l-.24-.17a13.38,13.38,0,0,0-9.35-2.27c13.94,7,10.2,31-9.12,30.06a17,17,0,0,1-5-1c-.38-.14-.76-.3-1.14-.46l-.65-.32,0,0c2.69,1.84,16,6.33,29.91-5l0-.05C62.09,51.59,66.69,40.14,57.9,32Z"/><path id="b8f4050b-ef57-44de-99ad-1fc20ec3c19d" data-name="cheek-tufts" class="f9997565-7b73-408f-b91a-738252506684" d="M22.65,44.75s1.79-6.67,12.81-6.67c1.19,0,4.6-3.32,4.66-4.29a19.3,19.3,0,0,1-14.55-.57,14.61,14.61,0,0,0-14.25.57,10,10,0,0,0,9.19,5.78c-.72,6.34,2.63,13.72,10.74,17.6l.53.26C27.05,55,23.14,50.36,22.65,44.75Z"/><path id="e56852f4-a3a0-4f5b-971f-957a34415376" data-name="overlay-yellow" class="a1a0a707-1a27-4c78-8510-855b5c783b85" d="M75.92,26.83c-1.69-4-5.1-8.43-7.78-9.81a40.41,40.41,0,0,1,3.93,11.77v.06C67.69,17.93,60.26,13.52,54.19,3.93c-.31-.49-.62-1-.91-1.49-.15-.26-.3-.52-.43-.8A7.42,7.42,0,0,1,52.27.11a.1.1,0,0,0-.08-.1h-.1s0,0,0,0V0c-9.73,5.7-13,16.25-13.34,21.53.45,0,.9-.07,1.36-.07a19.54,19.54,0,0,1,17,9.92,13.34,13.34,0,0,0-9.34-2.27c13.94,7,10.2,31-9.12,30.06a17,17,0,0,1-5-1c-.38-.14-.76-.3-1.14-.46l-.66-.32,0,0-.56-.28.53.26c-4.73-2.44-8.64-7.07-9.13-12.68,0,0,1.79-6.67,12.81-6.67,1.2,0,4.6-3.32,4.67-4.29,0-.31-6.76-3-9.39-5.59-1.41-1.38-2.08-2.05-2.67-2.55a12.52,12.52,0,0,0-1-.76A18,18,0,0,1,27,15.42a28.81,28.81,0,0,0-9.33,7.21h0c-1.54-1.95-1.43-8.37-1.34-9.71a6.48,6.48,0,0,0-1.3.69,29.21,29.21,0,0,0-3.79,3.24A35.09,35.09,0,0,0,7.57,21.2h0a32.71,32.71,0,0,0-5.2,11.74l-.05.26c-.07.34-.4,2.07-.45,2.44h0a44.7,44.7,0,0,0-.57,5.41v.2a38.76,38.76,0,0,0,77,6.55c.07-.5.12-1,.18-1.5A39.93,39.93,0,0,0,75.92,26.83Zm-3.85,2v0Z"/><path class="b71dd15f-7a1c-4165-94d8-63bb74fb04a4" d="M97.07,7.87h10.76v2.92h-7.68v3.94h7.68v2.89h-7.68V24H97.07Zm14.42-1.12a1.72,1.72,0,0,1,1.78,1.68v.13a1.8,1.8,0,0,1-3.59,0,1.79,1.79,0,0,1,1.77-1.81ZM110,12.06h3V24h-3Zm11.86,3.31a2.47,2.47,0,0,0-1.48-.53c-1.23,0-1.94.8-1.94,2.54V24h-3V12.06h2.89v1.72A2.85,2.85,0,0,1,121.12,12a3.58,3.58,0,0,1,2,.62Zm1.26,2.71A6.1,6.1,0,0,1,129,11.82h.21a5.88,5.88,0,0,1,6.11,5.62c0,.15,0,.3,0,.45v1.25h-9.27a3.12,3.12,0,0,0,3.29,2.5,3.19,3.19,0,0,0,3-1.77l2.54,1.52a6.24,6.24,0,0,1-5.58,2.83,5.8,5.8,0,0,1-6.24-5.32,5.61,5.61,0,0,1,0-.82Zm3-1.34h6.26a3,3,0,0,0-3.17-2.36,3,3,0,0,0-3.1,2.36Zm10-4.68h2.13v-.59c0-3.24,1.37-4.59,4.37-4.59h1.06V9.51h-.86c-1.41,0-1.72.48-1.72,2v.59h2.58v2.7h-2.51V24h-2.92V14.8h-2.13Zm8.13,6a6.1,6.1,0,0,1,6-6.2h.22a6.2,6.2,0,0,1,0,12.4,6,6,0,0,1-6.26-5.73,4.69,4.69,0,0,1,0-.53Zm9.49,0a3.27,3.27,0,1,0-6.53-.36,2.16,2.16,0,0,0,0,.36,3.27,3.27,0,1,0,6.53.36A2.16,2.16,0,0,0,153.74,18.06Zm7-.13-4.3-5.83H160l2.54,3.67,2.6-3.67h3.51l-4.37,5.8,4.61,6.1h-3.55l-2.85-3.88L159.74,24h-3.55Zm25.7-2.27a3.71,3.71,0,0,0,2.14-3.49c0-2.61-2-4.29-5-4.29h-6.9V24h7.12c3,0,5.1-1.73,5.1-4.55A3.87,3.87,0,0,0,186.49,15.66Zm-7.91-6.1h5c2,0,3.18,1.06,3.18,2.61s-1.06,2.69-3,2.69h-5.19Zm5.25,12.75h-5.25V16.56h5.17c2.2,0,3.35,1.17,3.35,2.88S185.82,22.31,183.83,22.31Zm9.06-8V12.08h-1.74V24h1.79V17.47c0-2.63,1.14-3.78,3.13-3.78a2.6,2.6,0,0,1,1.46.38l.75-1.72a3.85,3.85,0,0,0-2-.45,3.3,3.3,0,0,0-3.39,2.43Zm11.66-2.49a6.12,6.12,0,0,0-6.18,6.06V18a6.08,6.08,0,0,0,5.95,6.21h.23a6.21,6.21,0,0,0,.5-12.41Zm0,10.69a4.31,4.31,0,0,1-4.35-4.29V18a4.37,4.37,0,0,1,8.73-.42,2.94,2.94,0,0,1,0,.42,4.36,4.36,0,0,1-4.17,4.53h-.21Zm20.74-1.06-3.55-9.39h-1.68l-3.65,9.45-3-9.45h-1.9L215.42,24h1.77l3.66-9.46L224.52,24h1.63l4.14-11.93h-1.88Zm11.38-4.35c-1.86-.38-3.29-.62-3.29-1.86s.75-1.9,2.58-1.9A3.86,3.86,0,0,1,239.23,15l1.5-1A5.76,5.76,0,0,0,236,11.82c-2.82,0-4.44,1.61-4.44,3.46,0,2.39,2.19,2.94,4.24,3.34,1.75.35,3.38.62,3.38,1.94s-1,2.08-2.82,2.08a4.45,4.45,0,0,1-3.85-1.95l-1.57,1.06a6.09,6.09,0,0,0,5.37,2.5c3.12,0,4.71-1.83,4.71-3.71,0-2.45-2.3-3-4.35-3.42Zm12-5.28a6.12,6.12,0,0,0-6.22,6v.23a6,6,0,0,0,5.83,6.16h.46a6.11,6.11,0,0,0,5.54-3l-1.54-.9a4.28,4.28,0,0,1-4,2.3,4.32,4.32,0,0,1-4.53-3.89h10.54v-.82a5.89,5.89,0,0,0-5.69-6.08h-.38Zm-4.41,5.3a4.42,4.42,0,0,1,4.41-3.69,4,4,0,0,1,4.22,3.69Zm17.8-5.24a3.3,3.3,0,0,0-3.4,2.43V12.08h-1.75V24h1.79V17.47c0-2.63,1.15-3.78,3.14-3.78a2.6,2.6,0,0,1,1.46.38l.75-1.72a3.9,3.9,0,0,0-2-.45ZM110,32.44,95.22,71.61H103l2.58-7.14h16.36l2.58,7.14h7.78L117.49,32.44Zm-1.9,25.17,5.69-15.56,5.63,15.56Zm39.76-25.17H135.2V71.61H148c11.69,0,20.28-8.42,20.28-19.58S160.3,32.44,147.86,32.44Zm-.32,32.09h-4.73V39.47h4.51c8.58,0,13.31,5.37,13.31,12.56C160.63,59.06,155.48,64.53,147.54,64.53Zm38-32.09H172.86V71.61h12.82C197.38,71.61,206,63.19,206,52s-8-19.56-20.48-19.56Zm-.32,32.09H180.5V39.47H185c8.59,0,13.31,5.37,13.31,12.56,0,7-5.17,12.5-13.11,12.5Zm25.22-9.31h19.85V48.83H210.42ZM254.2,31.91A20.12,20.12,0,1,0,274.31,52v0A20,20,0,0,0,254.4,31.91Zm0,32.78a12.69,12.69,0,1,1,12.5-12.88V52a12.46,12.46,0,0,1-12.23,12.69Zm49.89-5.58L286.93,32.44h-8.11V71.61h7.35V44.09l17.71,27.52h7.51V32.44h-7.3Z"/></svg>